<?xml version="1.0" encoding="UTF-8" standalone="no"?>
<svg width="363" xmlns="http://www.w3.org/2000/svg" xmlns:xlink="http://www.w3.org/1999/xlink" height="356">
 <defs>
  <filter id="filter3861" y="-.21898" width="1.1039" height="1.438" x="-.051967">
   <feGaussianBlur id="feGaussianBlur3863" stdDeviation="3.047152"/>
  </filter>
  <filter id="filter3821" y="-.17309" width="1.157" height="1.3462" x="-.078486">
   <feGaussianBlur id="feGaussianBlur3823" stdDeviation="6.773525"/>
  </filter>
  <linearGradient id="linearGradient3390" y2=".65110" xlink:href="#linearGradient3003" x2="1.1431" y1=".34691" x1=".34468"/>
  <linearGradient id="linearGradient3392" y2=".70408" xlink:href="#linearGradient3003" x2="1.1083" y1=".33932" x1=".25758"/>
  <linearGradient id="linearGradient3394" y2=".80349" xlink:href="#linearGradient3003" y1=".32657" x1=".30804"/>
  <linearGradient id="linearGradient3396" y2="1.5604" x2=".46038" y1=".33711" x1=".44779">
   <stop id="stop3867" stop-color="#fb6b10" offset="0"/>
   <stop id="stop3869" stop-color="#fb6b10" stop-opacity="0" offset="1"/>
  </linearGradient>
  <linearGradient id="linearGradient3382" y2=".35419" xlink:href="#linearGradient3003" x2="1.3395" y1=".38558" x1=".24338"/>
  <linearGradient id="linearGradient3386" y2=".58362" xlink:href="#linearGradient3003" x2="1.2148" y1=".35752" x1=".28642"/>
  <linearGradient id="linearGradient3384" y2=".42606" xlink:href="#linearGradient3003" x2="1.3468" y1="0.388" x1=".22261"/>
  <linearGradient id="linearGradient3380" y2=".35419" xlink:href="#linearGradient3003" x2="1.3395" y1=".38558" x1=".24338"/>
  <linearGradient id="linearGradient3414" y2=".70408" xlink:href="#linearGradient3003" x2="1.1083" y1=".33932" x1=".25758"/>
  <linearGradient id="linearGradient3412" y2=".65110" xlink:href="#linearGradient3003" x2="1.1431" y1=".34691" x1=".34468"/>
  <linearGradient id="linearGradient3408" y2=".58362" xlink:href="#linearGradient3003" x2="1.2148" y1=".35752" x1=".28642"/>
  <linearGradient id="linearGradient3378" y2=".28631" xlink:href="#linearGradient3003" x2="1.2443" y1=".40733" x1=".26814"/>
  <linearGradient id="linearGradient3416" y2=".80349" xlink:href="#linearGradient3003" y1=".32657" x1=".30804"/>
  <linearGradient id="linearGradient3352" y2=".80349" xlink:href="#linearGradient3003" x2=".000003" y1=".32657" x1=".69197"/>
  <linearGradient id="linearGradient3003">
   <stop id="stop3005" stop-color="#ffdc77" offset="0"/>
   <stop id="stop3007" stop-color="#ffa63a" offset="1"/>
  </linearGradient>
  <radialGradient id="radialGradient3350" gradientUnits="userSpaceOnUse" cy="248.43" cx="541.43" gradientTransform="matrix(1 0 0 .52507 0 113.47)" r="132.08">
   <stop id="stop3883" stop-color="#f2ec50" offset="0"/>
   <stop id="stop3885" stop-color="#737c1d" offset="1"/>
  </radialGradient>
 </defs>
 <g id="g3278">
  <path id="path3265" fill="#6d8725" d="m47.632 148.91s4.535 0.73891 6.7656 0.38283c0.95664-0.15271 2.7062-1.0594 2.7062-1.0594s8.8229 23.228 15.178 33.828c7.7706 12.961 15.726 26.691 27.739 35.858 15.515 11.839 34.834 19.367 54.125 22.327 15.439 2.3689 31.506-0.36667 46.683-4.0594 20.143-4.901 40.259-12.18 57.508-23.68 8.7572-5.8381 16.255-13.729 22.326-22.327 5.619-7.9571 9.4184-17.166 12.561-26.386 2.233-6.5515 3.357-13.452 4.3828-20.297 0.77154-5.1482 0.70374-10.392 1.3234-15.561 0.62488-5.2116 2.4125-15.561 2.4125-15.561l10.442-1.3531s-5.7681 35.013-12.178 51.419c-6.0266 15.424-13.32 30.953-24.356 43.3-12.597 14.093-28.627 25.718-46.006 33.152-18.138 7.7581-38.457 10.709-58.184 10.825-15.794 0.092804-31.963-2.3929-46.683-8.1187-15.975-6.214-31.343-15.457-43.3-27.739-10.657-10.946-16.994-25.504-23.68-39.241-4.012-8.2427-9.7656-25.709-9.7656-25.709z"/>
  <path id="path2991" fill="url(#radialGradient3350)" d="m46.632 145.91s5.2079 0.80066 7.7656 0.38283c0.95606-0.15619 2.7062-1.0594 2.7062-1.0594s8.8229 23.228 15.178 33.828c7.7706 12.961 15.726 26.691 27.739 35.858 15.515 11.839 34.834 19.367 54.125 22.327 15.439 2.3689 31.506-0.36667 46.683-4.0594 20.143-4.901 40.259-12.18 57.508-23.68 8.7572-5.8381 16.255-13.729 22.326-22.327 5.619-7.9571 9.4184-17.166 12.561-26.386 2.233-6.5515 3.357-13.452 4.3828-20.297 0.77154-5.1482 0.70374-10.392 1.3234-15.561 0.62488-5.2116 2.4125-15.561 2.4125-15.561l11.442-1.3531s-6.5883 34.998-13.178 51.419c-6.1677 15.369-13.32 30.953-24.356 43.3-12.597 14.093-28.627 25.718-46.006 33.152-18.138 7.7581-38.457 10.709-58.184 10.825-15.794 0.092804-31.963-2.3929-46.683-8.1187-15.975-6.214-31.343-15.457-43.3-27.739-10.657-10.946-16.764-25.618-23.68-39.241-4.2057-8.2844-10.766-25.709-10.766-25.709z"/>
  <path id="path2987" fill="#f39c43" d="m57.84 148.07s9.4376 25.194 16.744 36.359c9.5869 14.649 20.286 29.624 34.923 39.229 11.51 7.5532 25.615 10.87 39.229 12.917 16.088 2.419 32.797 1.9878 48.797-0.95679 15.329-2.8211 30.336-8.3122 44.013-15.787 12.827-7.0104 25.338-15.564 34.751-26.747 8.0172-9.5255 13.37-21.271 17.395-33.053 3.8731-11.338 4.7383-23.512 6.2192-35.402 0.53363-4.2843 0.95679-12.917 0.95679-12.917l-30.139 5.7408s-0.81763 0.78628-2.1592 2.0342c-1.4129 1.3142-3.3933 5.8423-6.2546 6.6379-4.1796 1.1622-3.6319 4.5876-5.7935 6.3003-2.0964 1.6612-3.8286 1.3122-5.5779 2.3871-7.5464 4.6371-16.32 7.0097-24.706 9.9094-10.206 3.5291-20.413 7.5124-31.096 9.0896-17.985 2.6553-36.546 3.0852-54.538 0.47841-5.9408-0.86075-17.222-5.2624-17.222-5.2624l-7.176 11.003-8.1328-17.701s-16.943-2.3826-25.355-1.4352c-8.5762 0.96585-24.877 7.176-24.877 7.176z"/>
  <g fill="#ff902a">
   <path id="path3256" d="m247.99 134.45c-2.0215 0-3.6706 1.2252-3.6706 2.7414 0 1.155 0.961 2.1502 2.3077 2.5555-0.10339 0.25392-0.17041 0.52605-0.17041 0.80536 0 1.5161 1.6492 2.7414 3.6706 2.7414 2.0215 0 3.6552-1.2253 3.6552-2.7414 0-0.21109-0.032776-0.4221-0.092896-0.61952 0.96661-0.37474 1.6107-1.0546 1.6107-1.8276 0-1.1792-1.4924-2.1218-3.3453-2.1218-0.23163 0-0.46307 0.003006-0.68152 0.031006-0.5896-0.92308-1.8276-1.5643-3.2834-1.5643h-0.0001z"/>
   <path id="path3263" d="m250.99 138.45c-2.0215 0-3.6706 1.2252-3.6706 2.7414 0 1.155 0.961 2.1502 2.3077 2.5555-0.10339 0.25392-0.17041 0.52605-0.17041 0.80536 0 1.5161 1.6492 2.7414 3.6706 2.7414 2.0215 0 3.6552-1.2253 3.6552-2.7414 0-0.21109-0.032776-0.4221-0.092896-0.61952 0.96661-0.37474 1.6107-1.0546 1.6107-1.8276 0-1.1792-1.4924-2.1218-3.3453-2.1218-0.23163 0-0.46307 0.003006-0.68152 0.031006-0.5896-0.92308-1.8276-1.5643-3.2834-1.5643h-0.0001z"/>
  </g>
  <path id="path3252" fill="url(#linearGradient3352)" d="m252.27 147.79c0.28363 3.3526-1.3055 10.009-1.3055 10.009s-4.2826-1.6752-6.0925-3.0462c-1.7189-1.3022-2.8125-3.2766-4.3518-4.7869-1.1006-1.08-2.709-1.7117-3.4814-3.0462-0.74103-1.2803-1.1701-2.9032-0.8703-4.3518 0.46478-2.246 2.3067-4.0236 3.9166-5.6573 0.87585-0.88881 1.7986-2.1558 3.0462-2.1759 1.5689-0.025299 2.7847 1.5244 3.9166 2.6111 1.4233 1.3664 2.5991 3.0222 3.4814 4.7869 0.88238 1.7647 1.5744 3.6913 1.7407 5.6573z"/>
  <path id="path2995" filter="url(#filter3821)" fill="#ffa75e" d="m284.59 129.65l-6.9375 1.3125c-3.5178 3.4466-10.839 10.392-19.406 15.656-9.425 5.7915-18.924 8.8803-27.062 11.812-10.03 3.6139-21.161 7.8995-33.906 9.7812-19.2 2.8346-39.16 3.3116-58.781 0.46875-3.2287-0.46779-6.3027-1.2222-9.1875-2.0625l-0.875 1.3438a14.572 14.572 0 0 1 -25.438 -1.8438l-4.625-10.031c-5.5528-0.4744-11.912-0.95738-14.031-0.71875-1.0655 0.12-4.2848 1.1616-6.875 1.9062 3.1681 7.3271 6.8812 15.472 9.3125 19.188 9.3609 14.304 19.166 27.419 30.719 35 8.584 5.6331 20.63 8.7976 33.406 10.719 14.364 2.1597 29.518 1.759 44-0.90625 13.686-2.5187 27.249-7.4545 39.625-14.219 11.956-6.5347 22.961-14.238 30.625-23.344 6.2642-7.4427 11.04-17.545 14.75-28.406 2.4605-7.2027 3.548-16.09 4.6875-25.656z"/>
  <g id="g3228" transform="matrix(.85608 .028679 -.019097 .90096 121.48 -5.2511)">
   <path id="path3230" fill="url(#linearGradient3378)" d="m134.74 174.58c1.1025 0.9801 2.3203 5.1223 4.0136 6.0068 2.2565 1.1786 7.1992-1.5764 7.1992-1.5764s1.109-4.7027 1.0365-7.094c-0.068848-2.2712-1.0477-4.4142-1.3903-6.6578-0.24493-1.6042 0.16943-3.3719-0.47302-4.849-0.61627-1.4171-1.6924-2.7746-3.0477-3.3992-2.1014-0.96851-4.6166-0.46767-6.8804-0.07869-1.2315 0.21162-2.7988 0.2332-3.5364 1.2937-0.92761 1.3335-0.36597 3.323-0.13367 4.9581 0.29211 2.0561 1.0869 4.012 1.8934 5.9094 1.2441 1.8684 0.25 3.5265 1.3188 5.4872v-0.000031z"/>
   <path id="path3232" fill="#fc7922" d="m131.35 175.69c0.96948 1.068 1.6555 5.1258 3.2227 6.1821 2.0884 1.4078 7.3339-0.52867 7.3339-0.52867s1.6907-4.2766 1.9196-6.5355c0.21747-2.1455-0.48322-4.291-0.54053-6.4467-0.040955-1.5415 0.59204-3.1493 0.14111-4.6238-0.43262-1.4146-1.3285-2.8342-2.5933-3.6014-1.961-1.1895-4.5171-1.0518-6.8097-0.98598-1.2474 0.035812-2.8035-0.1516-3.668 0.74818-1.0872 1.1314-0.7807 3.0772-0.7561 4.646 0.030884 1.9728 0.57269 3.9178 1.1334 5.8095 0.99811 1.9223-0.1958 3.3503 0.617 5.3363z"/>
   <path id="path3234" fill="url(#linearGradient3380)" d="m129.97 175.35c0.96948 1.068 1.6555 5.1258 3.2227 6.1821 2.0884 1.4078 7.334-0.52867 7.334-0.52867s1.6906-4.2766 1.9196-6.5355c0.21747-2.1454-0.48322-4.291-0.54047-6.4467-0.041016-1.5415 0.59198-3.1493 0.14105-4.6238-0.43262-1.4146-1.3285-2.8342-2.5933-3.6014-1.961-1.1895-4.5171-1.0518-6.8097-0.98596-1.2474 0.035797-2.8035-0.15161-3.668 0.74817-1.0872 1.1314-0.7807 3.0772-0.7561 4.646 0.030884 1.9728 0.57269 3.9178 1.1334 5.8095 0.99811 1.9223-0.1958 3.3503 0.617 5.3363z"/>
   <path id="path3236" fill="#fd8834" d="m126.54 177.4c0.96948 1.068 1.6555 5.1257 3.2227 6.1821 2.0884 1.4078 7.334-0.52866 7.334-0.52866s1.6906-4.2766 1.9196-6.5355c0.21747-2.1454-0.48322-4.291-0.54047-6.4467-0.041016-1.5415 0.59198-3.1493 0.14105-4.6238-0.43262-1.4147-1.3285-2.8342-2.5933-3.6014-1.961-1.1895-4.5171-1.0518-6.8097-0.98596-1.2474 0.035797-2.8035-0.15161-3.668 0.74817-1.0872 1.1314-0.7807 3.0772-0.7561 4.646 0.030884 1.9728 0.57269 3.9178 1.1334 5.8095 0.99811 1.9223-0.1958 3.3503 0.617 5.3363z"/>
   <path id="path3238" fill="url(#linearGradient3382)" d="m126.03 176.54c0.96948 1.068 1.6555 5.1258 3.2227 6.1821 2.0884 1.4077 7.3339-0.52867 7.3339-0.52867s1.6907-4.2766 1.9196-6.5355c0.21747-2.1454-0.48322-4.291-0.54053-6.4467-0.040955-1.5415 0.59204-3.1493 0.14111-4.6238-0.43262-1.4146-1.3285-2.8342-2.5933-3.6014-1.961-1.1895-4.5171-1.0518-6.8098-0.98596-1.2473 0.035797-2.8034-0.15161-3.668 0.74817-1.0872 1.1314-0.7807 3.0772-0.75616 4.646 0.030945 1.9728 0.57275 3.9178 1.1334 5.8095 0.99811 1.9223-0.1958 3.3503 0.617 5.3363z"/>
   <path id="path3240" fill="#fa761c" d="m124.11 178.88c2.2891 2.4659 8.2824 5.7696 8.2824 5.7696s1.6427-4.2952 1.8464-6.5566c0.19348-2.1478-0.53113-4.2854-0.61255-6.4403-0.058228-1.5409 0.55682-3.1557 0.089417-4.6251-0.44842-1.4097-1.36-2.8192-2.6334-3.5722-1.9742-1.1675-4.5286-1.0012-6.8203-0.90979-1.2469 0.049789-2.8049-0.12027-3.6594 0.78912-1.0745 1.1435-0.74628 3.0857-0.70416 4.6542 0.052979 1.9723 0.48657 3.9563 1.1982 5.7965 0.71161 1.8402 1.671 3.6486 3.0134 5.0946z"/>
   <path id="path3242" fill="url(#linearGradient3384)" d="m122.6 177.28c1.9952 2.7092 7.5758 6.6703 7.5758 6.6703s2.1185-4.0816 2.577-6.3053c0.43536-2.112-0.042542-4.318 0.1206-6.4682 0.11664-1.5376 0.91052-3.0724 0.61249-4.5853-0.28595-1.4514-1.0321-2.955-2.212-3.8474-1.8293-1.3836-4.386-1.5076-6.6734-1.6762-1.2445-0.09169-2.7733-0.43707-3.7253 0.36972-1.197 1.0144-1.0908 2.9814-1.2266 4.5445-0.17072 1.9656 0.035461 3.9859 0.53418 5.8949s1.2472 3.8143 2.4172 5.403h0.0001z"/>
  </g>
  <g id="g3204" transform="matrix(.85608 .028679 -.019097 .90096 109.48 -.25113)">
   <path id="path3206" fill="url(#linearGradient3378)" d="m134.74 174.58c1.1025 0.9801 2.3203 5.1223 4.0136 6.0068 2.2565 1.1786 7.1992-1.5764 7.1992-1.5764s1.109-4.7027 1.0365-7.094c-0.068848-2.2712-1.0477-4.4142-1.3903-6.6578-0.24493-1.6042 0.16943-3.3719-0.47302-4.849-0.61627-1.4171-1.6924-2.7746-3.0477-3.3992-2.1014-0.96851-4.6166-0.46767-6.8804-0.07869-1.2315 0.21162-2.7988 0.2332-3.5364 1.2937-0.92761 1.3335-0.36597 3.323-0.13367 4.9581 0.29211 2.0561 1.0869 4.012 1.8934 5.9094 1.2441 1.8684 0.25 3.5265 1.3188 5.4872v-0.000031z"/>
   <path id="path3208" fill="#fc7922" d="m131.35 175.69c0.96948 1.068 1.6555 5.1258 3.2227 6.1821 2.0884 1.4078 7.3339-0.52867 7.3339-0.52867s1.6907-4.2766 1.9196-6.5355c0.21747-2.1455-0.48322-4.291-0.54053-6.4467-0.040955-1.5415 0.59204-3.1493 0.14111-4.6238-0.43262-1.4146-1.3285-2.8342-2.5933-3.6014-1.961-1.1895-4.5171-1.0518-6.8097-0.98598-1.2474 0.035812-2.8035-0.1516-3.668 0.74818-1.0872 1.1314-0.7807 3.0772-0.7561 4.646 0.030884 1.9728 0.57269 3.9178 1.1334 5.8095 0.99811 1.9223-0.1958 3.3503 0.617 5.3363z"/>
   <path id="path3210" fill="url(#linearGradient3380)" d="m129.97 175.35c0.96948 1.068 1.6555 5.1258 3.2227 6.1821 2.0884 1.4078 7.334-0.52867 7.334-0.52867s1.6906-4.2766 1.9196-6.5355c0.21747-2.1454-0.48322-4.291-0.54047-6.4467-0.041016-1.5415 0.59198-3.1493 0.14105-4.6238-0.43262-1.4146-1.3285-2.8342-2.5933-3.6014-1.961-1.1895-4.5171-1.0518-6.8097-0.98596-1.2474 0.035797-2.8035-0.15161-3.668 0.74817-1.0872 1.1314-0.7807 3.0772-0.7561 4.646 0.030884 1.9728 0.57269 3.9178 1.1334 5.8095 0.99811 1.9223-0.1958 3.3503 0.617 5.3363z"/>
   <path id="path3212" fill="#fd8834" d="m126.54 177.4c0.96948 1.068 1.6555 5.1257 3.2227 6.1821 2.0884 1.4078 7.334-0.52866 7.334-0.52866s1.6906-4.2766 1.9196-6.5355c0.21747-2.1454-0.48322-4.291-0.54047-6.4467-0.041016-1.5415 0.59198-3.1493 0.14105-4.6238-0.43262-1.4147-1.3285-2.8342-2.5933-3.6014-1.961-1.1895-4.5171-1.0518-6.8097-0.98596-1.2474 0.035797-2.8035-0.15161-3.668 0.74817-1.0872 1.1314-0.7807 3.0772-0.7561 4.646 0.030884 1.9728 0.57269 3.9178 1.1334 5.8095 0.99811 1.9223-0.1958 3.3503 0.617 5.3363z"/>
   <path id="path3214" fill="url(#linearGradient3382)" d="m126.03 176.54c0.96948 1.068 1.6555 5.1258 3.2227 6.1821 2.0884 1.4077 7.3339-0.52867 7.3339-0.52867s1.6907-4.2766 1.9196-6.5355c0.21747-2.1454-0.48322-4.291-0.54053-6.4467-0.040955-1.5415 0.59204-3.1493 0.14111-4.6238-0.43262-1.4146-1.3285-2.8342-2.5933-3.6014-1.961-1.1895-4.5171-1.0518-6.8098-0.98596-1.2473 0.035797-2.8034-0.15161-3.668 0.74817-1.0872 1.1314-0.7807 3.0772-0.75616 4.646 0.030945 1.9728 0.57275 3.9178 1.1334 5.8095 0.99811 1.9223-0.1958 3.3503 0.617 5.3363z"/>
   <path id="path3216" fill="#fa761c" d="m124.11 178.88c2.2891 2.4659 8.2824 5.7696 8.2824 5.7696s1.6427-4.2952 1.8464-6.5566c0.19348-2.1478-0.53113-4.2854-0.61255-6.4403-0.058228-1.5409 0.55682-3.1557 0.089417-4.6251-0.44842-1.4097-1.36-2.8192-2.6334-3.5722-1.9742-1.1675-4.5286-1.0012-6.8203-0.90979-1.2469 0.049789-2.8049-0.12027-3.6594 0.78912-1.0745 1.1435-0.74628 3.0857-0.70416 4.6542 0.052979 1.9723 0.48657 3.9563 1.1982 5.7965 0.71161 1.8402 1.671 3.6486 3.0134 5.0946z"/>
   <path id="path3218" fill="url(#linearGradient3384)" d="m122.6 177.28c1.9952 2.7092 7.5758 6.6703 7.5758 6.6703s2.1185-4.0816 2.577-6.3053c0.43536-2.112-0.042542-4.318 0.1206-6.4682 0.11664-1.5376 0.91052-3.0724 0.61249-4.5853-0.28595-1.4514-1.0321-2.955-2.212-3.8474-1.8293-1.3836-4.386-1.5076-6.6734-1.6762-1.2445-0.09169-2.7733-0.43707-3.7253 0.36972-1.197 1.0144-1.0908 2.9814-1.2266 4.5445-0.17072 1.9656 0.035461 3.9859 0.53418 5.8949s1.2472 3.8143 2.4172 5.403h0.0001z"/>
  </g>
  <g id="g3180" transform="matrix(.89544 .10684 -.10684 .89544 91.96 -38.553)">
   <path id="path3182" fill="url(#linearGradient3378)" d="m152.12 209.16c1.1025 0.9801 2.3203 5.1223 4.0136 6.0068 2.2565 1.1786 7.1992-1.5764 7.1992-1.5764s1.109-4.7027 1.0365-7.094c-0.068848-2.2712-1.0477-4.4142-1.3903-6.6578-0.24493-1.6042 0.16943-3.3719-0.47302-4.849-0.61627-1.4171-1.6924-2.7746-3.0477-3.3993-2.1014-0.96851-4.6166-0.46765-6.8804-0.078674-1.2315 0.21159-2.7988 0.23317-3.5364 1.2937-0.92761 1.3335-0.36597 3.323-0.13367 4.9581 0.29211 2.0561 1.0869 4.012 1.8934 5.9094 1.2441 1.8684 0.25 3.5266 1.3188 5.4872v-0.000031z"/>
   <path id="path3184" fill="#fc7922" d="m148.73 210.27c0.96948 1.068 1.6555 5.1257 3.2227 6.1821 2.0884 1.4078 7.3339-0.52866 7.3339-0.52866s1.6907-4.2766 1.9196-6.5355c0.21747-2.1455-0.48322-4.291-0.54053-6.4467-0.040955-1.5415 0.59204-3.1493 0.14111-4.6238-0.43262-1.4146-1.3285-2.8342-2.5933-3.6014-1.961-1.1895-4.5171-1.0518-6.8097-0.98596-1.2474 0.035812-2.8035-0.1516-3.668 0.74818-1.0872 1.1314-0.7807 3.0772-0.7561 4.646 0.030884 1.9728 0.57269 3.9178 1.1334 5.8095 0.99811 1.9223-0.1958 3.3503 0.617 5.3363z"/>
   <path id="path3186" fill="url(#linearGradient3380)" d="m147.36 209.92c0.96948 1.068 1.6555 5.1258 3.2227 6.1821 2.0884 1.4078 7.334-0.5287 7.334-0.5287s1.6906-4.2765 1.9196-6.5355c0.21747-2.1454-0.48322-4.291-0.54047-6.4468-0.041016-1.5414 0.59198-3.1493 0.14105-4.6238-0.43262-1.4146-1.3285-2.8342-2.5933-3.6014-1.961-1.1896-4.5171-1.0518-6.8097-0.98596-1.2474 0.035797-2.8035-0.15163-3.668 0.74817-1.0872 1.1314-0.7807 3.0772-0.7561 4.646 0.030884 1.9728 0.57269 3.9178 1.1334 5.8095 0.99811 1.9224-0.1958 3.3503 0.617 5.3363z"/>
   <path id="path3188" fill="#fd8834" d="m143.92 211.97c0.96948 1.068 1.6555 5.1257 3.2227 6.1821 2.0884 1.4078 7.334-0.52864 7.334-0.52864s1.6906-4.2766 1.9196-6.5355c0.21747-2.1454-0.48322-4.291-0.54047-6.4467-0.041016-1.5415 0.59198-3.1493 0.14105-4.6238-0.43262-1.4146-1.3285-2.8342-2.5933-3.6014-1.961-1.1895-4.5171-1.0518-6.8097-0.98596-1.2474 0.035797-2.8035-0.15161-3.668 0.74817-1.0872 1.1314-0.7807 3.0772-0.7561 4.646 0.030884 1.9728 0.57269 3.9179 1.1334 5.8095 0.99811 1.9223-0.1958 3.3503 0.617 5.3363z"/>
   <path id="path3190" fill="url(#linearGradient3382)" d="m143.41 211.12c0.96948 1.068 1.6555 5.1257 3.2227 6.1821 2.0884 1.4078 7.3339-0.52866 7.3339-0.52866s1.6907-4.2766 1.9196-6.5355c0.21747-2.1454-0.48322-4.291-0.54053-6.4467-0.040955-1.5415 0.59204-3.1492 0.14111-4.6238-0.43262-1.4146-1.3285-2.8342-2.5933-3.6014-1.961-1.1895-4.5171-1.0518-6.8098-0.98595-1.2473 0.035797-2.8034-0.15161-3.668 0.74817-1.0872 1.1314-0.7807 3.0772-0.75616 4.6461 0.030945 1.9728 0.57275 3.9178 1.1334 5.8095 0.99811 1.9223-0.1958 3.3503 0.617 5.3363z"/>
   <path id="path3192" fill="#fa761c" d="m141.49 213.46c2.2891 2.4658 8.2824 5.7696 8.2824 5.7696s1.6427-4.2952 1.8464-6.5566c0.19348-2.1478-0.53113-4.2854-0.61255-6.4403-0.058228-1.5409 0.55682-3.1557 0.089417-4.6251-0.44842-1.4097-1.36-2.8192-2.6334-3.5722-1.9742-1.1675-4.5286-1.0012-6.8203-0.90979-1.2469 0.049774-2.8049-0.12027-3.6594 0.78912-1.0745 1.1435-0.74628 3.0857-0.70416 4.6542 0.052979 1.9723 0.48657 3.9562 1.1982 5.7965 0.71161 1.8403 1.671 3.6486 3.0134 5.0946z"/>
   <path id="path3194" fill="url(#linearGradient3384)" d="m139.99 211.85c1.9952 2.7092 7.5758 6.6703 7.5758 6.6703s2.1185-4.0816 2.577-6.3053c0.43536-2.112-0.042542-4.318 0.1206-6.4682 0.11664-1.5376 0.91052-3.0723 0.61249-4.5852-0.28595-1.4514-1.0321-2.955-2.212-3.8474-1.8293-1.3836-4.386-1.5076-6.6734-1.6762-1.2445-0.091705-2.7733-0.43707-3.7253 0.36972-1.197 1.0144-1.0908 2.9814-1.2266 4.5445-0.17072 1.9656 0.035461 3.986 0.53418 5.8949 0.49872 1.909 1.2472 3.8143 2.4172 5.403h0.0001z"/>
  </g>
  <g id="g3163" transform="matrix(.88612 .16739 -.16739 .88612 93.816 -67.196)">
   <path id="path3116" fill="url(#linearGradient3378)" d="m151.69 236.8c1.1025 0.98007 2.3203 5.1223 4.0136 6.0067 2.2565 1.1787 7.1992-1.5764 7.1992-1.5764s1.109-4.7027 1.0365-7.094c-0.068848-2.2712-1.0477-4.4142-1.3903-6.6578-0.24493-1.6042 0.16943-3.3719-0.47302-4.849-0.61627-1.4171-1.6924-2.7746-3.0477-3.3993-2.1014-0.96846-4.6166-0.46765-6.8804-0.078659-1.2315 0.21164-2.7988 0.23322-3.5364 1.2937-0.92761 1.3335-0.36597 3.323-0.13367 4.9581 0.29211 2.0562 1.0869 4.012 1.8934 5.9094 1.2441 1.8684 0.25 3.5265 1.3188 5.4873v-0.000031z"/>
   <path id="path3118" fill="#fc7922" d="m148.29 237.91c0.96948 1.068 1.6555 5.1258 3.2227 6.1821 2.0884 1.4077 7.3339-0.5287 7.3339-0.5287s1.6907-4.2765 1.9196-6.5355c0.21747-2.1455-0.48322-4.291-0.54053-6.4467-0.040955-1.5414 0.59204-3.1493 0.14111-4.6238-0.43262-1.4146-1.3285-2.8342-2.5933-3.6014-1.961-1.1895-4.5171-1.0518-6.8097-0.98596-1.2474 0.035782-2.8035-0.15158-3.668 0.74818-1.0872 1.1314-0.7807 3.0772-0.7561 4.646 0.030884 1.9728 0.57269 3.9178 1.1334 5.8095 0.99811 1.9224-0.1958 3.3503 0.617 5.3363z"/>
   <path id="path3120" fill="url(#linearGradient3380)" d="m146.92 237.56c0.96948 1.068 1.6555 5.1257 3.2227 6.1821 2.0884 1.4078 7.334-0.52867 7.334-0.52867s1.6906-4.2765 1.9196-6.5355c0.21747-2.1454-0.48322-4.291-0.54047-6.4467-0.041016-1.5415 0.59198-3.1493 0.14105-4.6238-0.43262-1.4147-1.3285-2.8342-2.5933-3.6014-1.961-1.1896-4.5171-1.0518-6.8097-0.98598-1.2474 0.035812-2.8035-0.1516-3.668 0.74817-1.0872 1.1314-0.7807 3.0772-0.7561 4.6461 0.030884 1.9728 0.57269 3.9178 1.1334 5.8095 0.99811 1.9223-0.1958 3.3503 0.617 5.3363z"/>
   <path id="path3122" fill="#fd8834" d="m143.49 239.61c0.96948 1.068 1.6555 5.1258 3.2227 6.1821 2.0884 1.4078 7.334-0.52869 7.334-0.52869s1.6906-4.2766 1.9196-6.5355c0.21747-2.1454-0.48322-4.291-0.54047-6.4468-0.041016-1.5415 0.59198-3.1492 0.14105-4.6238-0.43262-1.4147-1.3285-2.8342-2.5933-3.6014-1.961-1.1896-4.5171-1.0518-6.8097-0.98599-1.2474 0.035828-2.8035-0.15161-3.668 0.74817-1.0872 1.1314-0.7807 3.0772-0.7561 4.6461 0.030884 1.9728 0.57269 3.9178 1.1334 5.8095 0.99811 1.9224-0.1958 3.3503 0.617 5.3363z"/>
   <path id="path3124" fill="url(#linearGradient3382)" d="m142.97 238.75c0.96948 1.068 1.6555 5.1257 3.2227 6.1821 2.0884 1.4077 7.3339-0.52869 7.3339-0.52869s1.6907-4.2766 1.9196-6.5355c0.21747-2.1455-0.48322-4.2911-0.54053-6.4468-0.040955-1.5415 0.59204-3.1493 0.14111-4.6238-0.43262-1.4146-1.3285-2.8342-2.5933-3.6014-1.961-1.1895-4.5171-1.0518-6.8098-0.98593-1.2473 0.035767-2.8034-0.15161-3.668 0.74817-1.0872 1.1314-0.7807 3.0771-0.75616 4.646 0.030945 1.9728 0.57275 3.9178 1.1334 5.8095 0.99811 1.9224-0.1958 3.3503 0.617 5.3363z"/>
   <path id="path3126" fill="#fa761c" d="m141.06 241.1c2.2891 2.4658 8.2824 5.7696 8.2824 5.7696s1.6427-4.2952 1.8464-6.5566c0.19348-2.1478-0.53113-4.2854-0.61255-6.4403-0.058228-1.5409 0.55682-3.1557 0.089417-4.6252-0.44842-1.4097-1.36-2.8192-2.6334-3.5722-1.9742-1.1675-4.5286-1.0012-6.8203-0.9098-1.2469 0.04982-2.8049-0.12027-3.6594 0.78914-1.0745 1.1435-0.74628 3.0857-0.70416 4.6542 0.052979 1.9723 0.48657 3.9563 1.1982 5.7965 0.71161 1.8402 1.671 3.6486 3.0134 5.0946z"/>
   <path id="path3128" fill="url(#linearGradient3384)" d="m139.55 239.49c1.9952 2.7092 7.5758 6.6703 7.5758 6.6703s2.1185-4.0815 2.577-6.3053c0.43536-2.1121-0.042542-4.318 0.1206-6.4682 0.11664-1.5376 0.91052-3.0724 0.61249-4.5853-0.28595-1.4514-1.0321-2.955-2.212-3.8474-1.8293-1.3836-4.386-1.5076-6.6734-1.6762-1.2445-0.091675-2.7733-0.43707-3.7253 0.36972-1.197 1.0144-1.0908 2.9814-1.2266 4.5445-0.17072 1.9656 0.035461 3.9859 0.53418 5.8949s1.2472 3.8143 2.4172 5.403h0.000061z"/>
  </g>
  <g id="g3084" transform="matrix(.84898 -0.335 0.335 .84898 19.125 210.17)">
   <path id="path3086" fill="url(#linearGradient3386)" d="m172.87 20.2c0.46985 1.3637-0.49957 5.3632 0.52411 6.9519 1.3641 2.1171 6.9483 2.4058 6.9483 2.4058s3.2398-3.2635 4.3409-5.2492c1.0458-1.8859 1.2478-4.134 2.0451-6.1376 0.57007-1.4327 1.7857-2.6607 1.9527-4.1936 0.16022-1.4706-0.10339-3.1284-0.96326-4.3321-1.3331-1.8664-3.7364-2.7476-5.8693-3.591-1.1604-0.45886-2.5166-1.2447-3.6659-0.75865-1.4451 0.6111-1.9307 2.5201-2.5267 3.9715-0.74939 1.8252-1.0184 3.8263-1.249 5.7858 0.15936 2.1601-1.5008 3.0017-1.5369 5.1473z"/>
   <path id="path3088" fill="#fc7922" d="m169.54 19.152c0.28491 1.414-1.206 5.2497-0.40192 6.96 1.0715 2.2792 6.5681 3.3055 6.5681 3.3055s3.6438-2.8053 4.9984-4.6276c1.2865-1.7307 1.7847-3.9321 2.8405-5.8124 0.755-1.3445 2.1226-2.4006 2.4913-3.8978 0.3537-1.4364 0.31213-3.1145-0.38062-4.4216-1.074-2.0266-3.3393-3.2186-5.3416-4.3373-1.0894-0.60861-2.3294-1.5672-3.533-1.2378-1.5134 0.41417-2.2477 2.242-3.0308 3.6016-0.98474 1.7097-1.5165 3.6575-2.0048 5.5692-0.12842 2.1622-1.8855 2.7763-2.2056 4.8982z"/>
   <path id="path3090" fill="url(#linearGradient3390)" d="m168.54 18.152c0.28491 1.414-1.206 5.2497-0.40192 6.96 1.0715 2.2792 6.5681 3.3055 6.5681 3.3055s3.6438-2.8053 4.9984-4.6276c1.2865-1.7307 1.7847-3.9321 2.8405-5.8124 0.755-1.3445 2.1226-2.4006 2.4913-3.8978 0.3537-1.4364 0.31213-3.1145-0.38062-4.4216-1.074-2.0266-3.3393-3.2186-5.3416-4.3373-1.0894-0.60861-2.3294-1.5672-3.533-1.2378-1.5134 0.41417-2.2477 2.242-3.0308 3.6016-0.98474 1.7097-1.5165 3.6575-2.0048 5.5692-0.12842 2.1622-1.8855 2.7763-2.2056 4.8982z"/>
   <path id="path3092" fill="#fd8834" d="m164.54 18.152c0.28494 1.414-1.206 5.2497-0.40192 6.96 1.0715 2.2792 6.5681 3.3055 6.5681 3.3055s3.6438-2.8053 4.9984-4.6276c1.2865-1.7307 1.7847-3.9321 2.8405-5.8124 0.755-1.3445 2.1226-2.4006 2.4913-3.8978 0.3537-1.4364 0.31213-3.1145-0.38062-4.4216-1.074-2.0266-3.3393-3.2186-5.3416-4.3373-1.0894-0.60861-2.3294-1.5672-3.533-1.2378-1.5134 0.41417-2.2477 2.242-3.0308 3.6016-0.98471 1.7097-1.5166 3.6575-2.0048 5.5692-0.12836 2.1622-1.8855 2.7763-2.2056 4.8982z"/>
   <path id="path3094" fill="url(#linearGradient3390)" d="m164.54 17.152c0.28494 1.414-1.206 5.2497-0.40192 6.96 1.0715 2.2792 6.5681 3.3055 6.5681 3.3055s3.6438-2.8053 4.9984-4.6276c1.2865-1.7307 1.7847-3.9321 2.8405-5.8124 0.755-1.3445 2.1226-2.4006 2.4913-3.8978 0.3537-1.4364 0.31213-3.1145-0.38062-4.4216-1.074-2.0266-3.3393-3.2186-5.3416-4.3373-1.0894-0.60861-2.3294-1.5672-3.533-1.2378-1.5134 0.41417-2.2477 2.242-3.0308 3.6016-0.98471 1.7097-1.5166 3.6575-2.0048 5.5692-0.12836 2.1622-1.8855 2.7763-2.2056 4.8982z"/>
   <path id="path3096" fill="#fa761c" d="m161.7 18.181c0.70148 3.2907 4.1539 9.1995 4.1539 9.1995s3.6122-2.8459 4.9463-4.6831c1.2671-1.745 1.7407-3.9518 2.7754-5.8438 0.73987-1.3529 2.0957-2.4241 2.4476-3.9254 0.33765-1.4403 0.27734-3.1178-0.42993-4.417-1.0966-2.0144-3.3751-3.181-5.3897-4.2773-1.0961-0.5964-2.3467-1.5411-3.5466-1.1983-1.5087 0.43105-2.2225 2.2669-2.9904 3.6352-0.96552 1.7206-1.6102 3.6464-1.9424 5.5912-0.33231 1.9448-0.43549 3.9893-0.024109 5.919z"/>
   <path id="path3098" fill="url(#linearGradient3392)" d="m161.22 16.031c0.32437 3.3489 3.0855 9.6107 3.0855 9.6107s3.9112-2.4186 5.4448-4.0929c1.4565-1.5903 2.1769-3.7293 3.4192-5.492 0.88831-1.2604 2.3567-2.1713 2.8763-3.6231 0.49854-1.3928 0.6286-3.0663 0.072937-4.4374-0.86145-2.1256-2.9932-3.5427-4.8708-4.86-1.0215-0.71668-2.1572-1.7969-3.3881-1.5921-1.5478 0.25746-2.4649 2.0007-3.3827 3.2733-1.1541 1.6002-2.0127 3.4406-2.563 5.3353-0.55038 1.8947-0.88437 3.9144-0.69415 5.8782h0.000061z"/>
   <path id="path3100" fill="#fb7117" d="m158.05 13.678c-0.28363 3.3526 1.3055 10.009 1.3055 10.009s4.2826-1.6752 6.0925-3.0462c1.7189-1.3022 2.8125-3.2766 4.3518-4.7869 1.1006-1.08 2.709-1.7117 3.4814-3.0462 0.74103-1.2803 1.1701-2.9031 0.8703-4.3518-0.46478-2.246-2.3067-4.0236-3.9166-5.6573-0.87585-0.88882-1.7985-2.1558-3.0462-2.1759-1.5688-0.025299-2.7847 1.5244-3.9166 2.611-1.4233 1.3664-2.599 3.0222-3.4814 4.7869-0.88236 1.7647-1.5744 3.6913-1.7407 5.6573z"/>
   <path id="path3102" fill="url(#linearGradient3394)" d="m157.82 12.601c-0.28363 3.3526 1.3055 10.009 1.3055 10.009s4.2826-1.6752 6.0925-3.0462c1.7189-1.3022 2.8125-3.2766 4.3518-4.7869 1.1006-1.08 2.709-1.7117 3.4814-3.0462 0.74109-1.2803 1.1702-2.9032 0.87036-4.3518-0.46478-2.246-2.3067-4.0236-3.9166-5.6573-0.87585-0.88881-1.7986-2.1558-3.0462-2.1759-1.5688-0.025299-2.7847 1.5244-3.9166 2.6111-1.4233 1.3664-2.5991 3.0222-3.4814 4.7869-0.88236 1.7647-1.5744 3.6913-1.7407 5.6573z"/>
  </g>
  <path id="path2989" filter="url(#filter3861)" fill="url(#linearGradient3396)" d="m117.29 160.5s2.3621 6.8883 1.3531 10.148c-0.897 2.8984-6.089 6.7656-6.089 6.7656s11.855 11.994 19.62 14.208c6.0881 1.7356 12.707-0.26862 18.944-1.3531 5.7684-1.003 11.073-5.137 16.914-4.736 5.6428 0.38748 9.944 6.1013 15.561 6.7657 11.598 1.3718 23.153-3.3422 34.505-6.0891 9.6371-2.332 20.56-2.746 28.416-8.7953 3.3715-2.596 6.0377-6.6326 6.7656-10.825 0.55115-3.1739-2.0594-9.4422-2.0594-9.4422l-22.974 12.884-23.003 4s-33.152 6.089-36.534 6.089c-3.3828 0-51.419-19.62-51.419-19.62z"/>
  <g id="g3063" transform="matrix(.93020 -.36705 .36705 .93020 -49.659 209.37)">
   <path id="path3035" fill="url(#linearGradient3386)" d="m202.9 38.38c0.46985 1.3637-0.49957 5.3632 0.52411 6.9519 1.3641 2.1171 6.9483 2.4058 6.9483 2.4058s3.2398-3.2635 4.3409-5.2492c1.0458-1.8859 1.2478-4.134 2.0451-6.1376 0.57007-1.4327 1.7857-2.6607 1.9527-4.1936 0.16022-1.4706-0.10339-3.1284-0.96326-4.3321-1.3331-1.8664-3.7364-2.7476-5.8693-3.591-1.1604-0.45886-2.5166-1.2447-3.6659-0.75865-1.4451 0.6111-1.9307 2.5201-2.5267 3.9715-0.74939 1.8252-1.0184 3.8263-1.249 5.7858 0.15936 2.1601-1.5008 3.0017-1.5369 5.1473z"/>
   <path id="path3037" fill="#fc7922" d="m199.57 37.332c0.28491 1.414-1.206 5.2497-0.40192 6.96 1.0715 2.2792 6.5681 3.3055 6.5681 3.3055s3.6438-2.8053 4.9984-4.6276c1.2865-1.7307 1.7847-3.9321 2.8405-5.8124 0.755-1.3445 2.1226-2.4006 2.4913-3.8978 0.3537-1.4364 0.31213-3.1145-0.38062-4.4216-1.074-2.0266-3.3393-3.2186-5.3416-4.3373-1.0894-0.60861-2.3294-1.5672-3.533-1.2378-1.5134 0.41417-2.2477 2.242-3.0308 3.6016-0.98474 1.7097-1.5165 3.6575-2.0048 5.5692-0.12842 2.1622-1.8855 2.7763-2.2056 4.8982z"/>
   <path id="path3039" fill="url(#linearGradient3390)" d="m198.57 36.332c0.28491 1.414-1.206 5.2497-0.40192 6.96 1.0715 2.2792 6.5681 3.3055 6.5681 3.3055s3.6438-2.8053 4.9984-4.6276c1.2865-1.7307 1.7847-3.9321 2.8405-5.8124 0.755-1.3445 2.1226-2.4006 2.4913-3.8978 0.3537-1.4364 0.31213-3.1145-0.38062-4.4216-1.074-2.0266-3.3393-3.2186-5.3416-4.3373-1.0894-0.60861-2.3294-1.5672-3.533-1.2378-1.5134 0.41417-2.2477 2.242-3.0308 3.6016-0.98474 1.7097-1.5165 3.6575-2.0048 5.5692-0.12842 2.1622-1.8855 2.7763-2.2056 4.8982z"/>
   <path id="path3041" fill="#fd8834" d="m194.57 36.332c0.28494 1.414-1.206 5.2497-0.40192 6.96 1.0715 2.2792 6.5681 3.3055 6.5681 3.3055s3.6438-2.8053 4.9984-4.6276c1.2865-1.7307 1.7847-3.9321 2.8405-5.8124 0.755-1.3445 2.1226-2.4006 2.4913-3.8978 0.3537-1.4364 0.31213-3.1145-0.38062-4.4216-1.074-2.0266-3.3393-3.2186-5.3416-4.3373-1.0894-0.60861-2.3294-1.5672-3.533-1.2378-1.5134 0.41417-2.2477 2.242-3.0308 3.6016-0.98471 1.7097-1.5166 3.6575-2.0048 5.5692-0.12836 2.1622-1.8855 2.7763-2.2056 4.8982z"/>
   <path id="path3043" fill="url(#linearGradient3390)" d="m194.57 35.332c0.28494 1.414-1.206 5.2497-0.40192 6.96 1.0715 2.2792 6.5681 3.3055 6.5681 3.3055s3.6438-2.8053 4.9984-4.6276c1.2865-1.7307 1.7847-3.9321 2.8405-5.8124 0.755-1.3445 2.1226-2.4006 2.4913-3.8978 0.3537-1.4364 0.31213-3.1145-0.38062-4.4216-1.074-2.0266-3.3393-3.2186-5.3416-4.3373-1.0894-0.60861-2.3294-1.5672-3.533-1.2378-1.5134 0.41417-2.2477 2.242-3.0308 3.6016-0.98471 1.7097-1.5166 3.6575-2.0048 5.5692-0.12836 2.1622-1.8855 2.7763-2.2056 4.8982z"/>
   <path id="path3045" fill="#fa761c" d="m191.73 36.36c0.70148 3.2907 4.1539 9.1995 4.1539 9.1995s3.6122-2.8459 4.9463-4.6831c1.2671-1.745 1.7407-3.9518 2.7754-5.8438 0.73987-1.3529 2.0957-2.4241 2.4476-3.9254 0.33765-1.4403 0.27734-3.1178-0.42993-4.417-1.0966-2.0144-3.3751-3.181-5.3897-4.2773-1.0961-0.5964-2.3467-1.5411-3.5466-1.1983-1.5087 0.43105-2.2225 2.2669-2.9904 3.6352-0.96552 1.7206-1.6102 3.6464-1.9424 5.5912-0.33231 1.9448-0.43549 3.9893-0.024109 5.919z"/>
   <path id="path3047" fill="url(#linearGradient3392)" d="m191.25 34.21c0.32437 3.3489 3.0855 9.6107 3.0855 9.6107s3.9112-2.4186 5.4448-4.0929c1.4565-1.5903 2.1769-3.7293 3.4192-5.492 0.88831-1.2604 2.3567-2.1713 2.8763-3.6231 0.49854-1.3928 0.6286-3.0663 0.072937-4.4374-0.86145-2.1256-2.9932-3.5427-4.8708-4.86-1.0215-0.71668-2.1572-1.7969-3.3881-1.5921-1.5478 0.25746-2.4649 2.0007-3.3827 3.2733-1.1541 1.6002-2.0127 3.4406-2.563 5.3353-0.55038 1.8947-0.88437 3.9144-0.69415 5.8782h0.000061z"/>
   <path id="path3049" fill="#fb7117" d="m188.08 31.857c-0.28363 3.3526 1.3055 10.009 1.3055 10.009s4.2826-1.6752 6.0925-3.0462c1.7189-1.3022 2.8125-3.2766 4.3518-4.7869 1.1006-1.08 2.709-1.7117 3.4814-3.0462 0.74103-1.2803 1.1701-2.9031 0.8703-4.3518-0.46478-2.246-2.3067-4.0236-3.9166-5.6573-0.87585-0.88882-1.7985-2.1558-3.0462-2.1759-1.5688-0.025299-2.7847 1.5244-3.9166 2.611-1.4233 1.3664-2.599 3.0222-3.4814 4.7869-0.88236 1.7647-1.5744 3.6913-1.7407 5.6573z"/>
   <path id="path3051" fill="url(#linearGradient3394)" d="m187.85 30.78c-0.28363 3.3526 1.3055 10.009 1.3055 10.009s4.2826-1.6752 6.0925-3.0462c1.7189-1.3022 2.8125-3.2766 4.3518-4.7869 1.1006-1.08 2.709-1.7117 3.4814-3.0462 0.74109-1.2803 1.1702-2.9032 0.87036-4.3518-0.46478-2.246-2.3067-4.0236-3.9166-5.6573-0.87585-0.88881-1.7986-2.1558-3.0462-2.1759-1.5688-0.025299-2.7847 1.5244-3.9166 2.6111-1.4233 1.3664-2.5991 3.0222-3.4814 4.7869-0.88236 1.7647-1.5744 3.6913-1.7407 5.6573z"/>
  </g>
  <path id="path3023" fill="url(#linearGradient3408)" d="m131.07 166.85c0.46982 1.3637-0.49957 5.3632 0.52411 6.9519 1.3642 2.1171 6.9483 2.4058 6.9483 2.4058s3.2398-3.2635 4.3409-5.2492c1.0458-1.8859 1.2478-4.134 2.045-6.1376 0.57013-1.4327 1.7858-2.6607 1.9527-4.1936 0.16019-1.4706-0.10336-3.1284-0.96329-4.3321-1.3331-1.8664-3.7364-2.7476-5.8693-3.591-1.1604-0.45886-2.5165-1.2447-3.6659-0.75865-1.4452 0.6111-1.9307 2.5201-2.5267 3.9715-0.74942 1.8252-1.0184 3.8263-1.249 5.7858 0.15933 2.1601-1.5009 3.0017-1.5369 5.1473z"/>
  <path id="path3033" fill="#fc7922" d="m127.74 165.8c0.28494 1.414-1.206 5.2497-0.40192 6.96 1.0715 2.2792 6.5681 3.3055 6.5681 3.3055s3.6438-2.8053 4.9984-4.6276c1.2865-1.7307 1.7847-3.9321 2.8405-5.8124 0.75497-1.3445 2.1226-2.4006 2.4913-3.8978 0.3537-1.4364 0.31216-3.1145-0.38062-4.4216-1.074-2.0266-3.3393-3.2186-5.3416-4.3373-1.0894-0.60861-2.3294-1.5672-3.533-1.2378-1.5134 0.41417-2.2477 2.242-3.0308 3.6016-0.98471 1.7097-1.5166 3.6575-2.0048 5.5692-0.12836 2.1622-1.8855 2.7763-2.2056 4.8982z"/>
  <path id="path3019" fill="url(#linearGradient3390)" d="m126.74 164.8c0.28494 1.414-1.206 5.2497-0.40192 6.96 1.0715 2.2792 6.5681 3.3055 6.5681 3.3055s3.6438-2.8053 4.9984-4.6276c1.2865-1.7307 1.7847-3.9321 2.8405-5.8124 0.75497-1.3445 2.1226-2.4006 2.4913-3.8978 0.3537-1.4364 0.31216-3.1145-0.38062-4.4216-1.074-2.0266-3.3393-3.2186-5.3416-4.3373-1.0894-0.60861-2.3294-1.5672-3.533-1.2378-1.5134 0.41417-2.2477 2.242-3.0308 3.6016-0.98471 1.7097-1.5166 3.6575-2.0048 5.5692-0.12836 2.1622-1.8855 2.7763-2.2056 4.8982z"/>
  <path id="path3031" fill="#fd8834" d="m122.74 164.8c0.28494 1.414-1.206 5.2497-0.40192 6.96 1.0715 2.2792 6.5681 3.3055 6.5681 3.3055s3.6438-2.8053 4.9984-4.6276c1.2865-1.7307 1.7847-3.9321 2.8405-5.8124 0.75497-1.3445 2.1226-2.4006 2.4913-3.8978 0.3537-1.4364 0.31216-3.1145-0.38062-4.4216-1.074-2.0266-3.3393-3.2186-5.3416-4.3373-1.0894-0.60861-2.3294-1.5672-3.533-1.2378-1.5134 0.41417-2.2477 2.242-3.0308 3.6016-0.98471 1.7097-1.5166 3.6575-2.0048 5.5692-0.12836 2.1622-1.8855 2.7763-2.2056 4.8982z"/>
  <path id="path3015" fill="url(#linearGradient3412)" d="m122.74 163.8c0.28494 1.414-1.206 5.2497-0.40192 6.96 1.0715 2.2792 6.5681 3.3055 6.5681 3.3055s3.6438-2.8053 4.9984-4.6276c1.2865-1.7307 1.7847-3.9321 2.8405-5.8124 0.75497-1.3445 2.1226-2.4006 2.4913-3.8978 0.3537-1.4364 0.31216-3.1145-0.38062-4.4216-1.074-2.0266-3.3393-3.2186-5.3416-4.3373-1.0894-0.60861-2.3294-1.5672-3.533-1.2378-1.5134 0.41417-2.2477 2.242-3.0308 3.6016-0.98471 1.7097-1.5166 3.6575-2.0048 5.5692-0.12836 2.1622-1.8855 2.7763-2.2056 4.8982z"/>
  <path id="path3029" fill="#fa761c" d="m119.89 164.83c0.70148 3.2907 4.1539 9.1995 4.1539 9.1995s3.6122-2.8459 4.9463-4.6831c1.2671-1.745 1.7407-3.9518 2.7754-5.8438 0.7399-1.3529 2.0957-2.4241 2.4476-3.9254 0.33762-1.4403 0.27734-3.1178-0.42996-4.417-1.0966-2.0144-3.3751-3.181-5.3897-4.2773-1.0961-0.5964-2.3467-1.5411-3.5466-1.1983-1.5087 0.43105-2.2225 2.2669-2.9904 3.6352-0.96552 1.7206-1.6102 3.6464-1.9424 5.5912-0.33231 1.9448-0.43549 3.9893-0.024109 5.919z"/>
  <path id="path3011" fill="url(#linearGradient3414)" d="m119.42 162.68c0.32437 3.3489 3.0855 9.6107 3.0855 9.6107s3.9112-2.4186 5.4448-4.0929c1.4565-1.5903 2.1769-3.7293 3.4192-5.492 0.88834-1.2604 2.3567-2.1713 2.8763-3.6231 0.4985-1.3928 0.62857-3.0663 0.072906-4.4374-0.86145-2.1256-2.9932-3.5427-4.8708-4.86-1.0215-0.71668-2.1572-1.7969-3.3881-1.5921-1.5478 0.25746-2.4649 2.0007-3.3827 3.2733-1.1541 1.6002-2.0127 3.4406-2.563 5.3353-0.55038 1.8947-0.88437 3.9144-0.69415 5.8782h0.000061z"/>
  <path id="path3027" fill="#fb7117" d="m116.25 160.33c-0.28363 3.3526 1.3055 10.009 1.3055 10.009s4.2826-1.6752 6.0925-3.0462c1.7189-1.3022 2.8125-3.2766 4.3518-4.7869 1.1007-1.08 2.709-1.7117 3.4814-3.0462 0.74106-1.2803 1.1702-2.9031 0.87036-4.3518-0.46481-2.246-2.3068-4.0236-3.9166-5.6573-0.87585-0.88882-1.7986-2.1558-3.0462-2.1759-1.5688-0.025299-2.7847 1.5244-3.9166 2.611-1.4233 1.3664-2.599 3.0222-3.4814 4.7869-0.88236 1.7647-1.5744 3.6913-1.7407 5.6573z"/>
  <path id="path3001" fill="url(#linearGradient3416)" d="m116.01 159.25c-0.28363 3.3526 1.3055 10.009 1.3055 10.009s4.2826-1.6752 6.0925-3.0462c1.7189-1.3022 2.8125-3.2766 4.3518-4.7869 1.1006-1.08 2.709-1.7117 3.4814-3.0462 0.74103-1.2803 1.1701-2.9032 0.87036-4.3518-0.46484-2.246-2.3068-4.0236-3.9166-5.6573-0.87585-0.88881-1.7986-2.1558-3.0462-2.1759-1.5688-0.025299-2.7847 1.5244-3.9166 2.6111-1.4233 1.3664-2.5991 3.0222-3.4814 4.7869-0.88236 1.7647-1.5744 3.6913-1.7407 5.6573z"/>
  <path id="path3269" fill="#aaae33" d="m300.88 112.71l-0.5938 0.125c-0.50055 3.1085-1.0505 6.6476-1.3438 9.0938-0.61969 5.1687-0.5722 10.414-1.3438 15.562-1.0258 6.8451-2.142 13.761-4.375 20.312-3.1426 9.2202-6.9435 18.418-12.562 26.375-6.0711 8.5974-13.555 16.474-22.312 22.312-17.249 11.499-37.357 18.786-57.5 23.688-15.177 3.6927-31.248 6.4314-46.688 4.0625-19.291-2.9599-38.61-10.474-54.125-22.312-12.014-9.167-19.979-22.914-27.75-35.875-4.3037-7.1782-9.6893-20-12.75-27.625-0.71463 0.26328-2.6875-2.375-2.6875-2.375s10.444 28.21 17.75 39.375c9.5869 14.649 20.269 29.614 34.906 39.219 11.51 7.5532 25.636 10.89 39.25 12.938 16.088 2.419 32.781 1.9759 48.781-0.96875 15.329-2.8211 30.323-8.3062 44-15.781 12.827-7.0104 25.368-15.566 34.781-26.75 8.0172-9.5255 13.35-21.281 17.375-33.062 3.8731-11.338 4.7378-23.517 6.2188-35.406 0.53363-4.2843 0.96875-12.906 0.96875-12.906z"/>
 </g>
</svg>
